<?xml version="1.0" standalone="no"?>
<!DOCTYPE svg PUBLIC "-//W3C//DTD SVG 20010904//EN" "http://www.w3.org/TR/2001/REC-SVG-20010904/DTD/svg10.dtd">
<svg version="1.0" xmlns="http://www.w3.org/2000/svg" width="1200.000000pt" height="1200.000000pt" viewBox="0 0 1200.000000 1200.000000" preserveAspectRatio="xMidYMid meet">
<metadata>
Created by potrace 1.16, written by Peter Selinger 2001-2019
</metadata>
<g transform="translate(0.000000,1200.000000) scale(0.100000,-0.100000)" fill="#FFFFFF" stroke="none">
<path d="M8663 9077 l-1163 -421 0 -428 c0 -255 4 -428 9 -428 5 0 339 113 742 250 402 138 736 250 740 250 5 0 9 -1167 9 -2650 l0 -2650 500 0 500 0 0 3250 0 3250 -87 -1 -88 0 -1162 -422z"/>
<path d="M4000 7500 l0 -1000 -1000 0 -1000 0 0 -500 0 -500 1000 0 1000 0 0 -1000 0 -1000 500 0 500 0 0 1000 0 1000 1000 0 1000 0 0 500 0 500 -1000 0 -1000 0 0 1000 0 1000 -500 0 -500 0 0 -1000z"/>
</g>
</svg>
