<svg version="1.0" xmlns="http://www.w3.org/2000/svg"
 width="840.000000pt" height="478.000000pt" viewBox="0 0 840.000000 478.000000"
 preserveAspectRatio="xMidYMid meet">
<metadata>
Created by potrace 1.16, written by Peter Selinger 2001-2019
</metadata>
<g transform="translate(0.000000,478.000000) scale(0.100000,-0.100000)"
fill="white" stroke="none">
<path d="M4130 4364 c0 -3 50 -78 111 -165 82 -118 116 -159 132 -160 12 -1
246 -3 520 -3 373 -2 500 1 508 10 5 7 8 75 7 165 l-3 154 -637 3 c-351 1
-638 -1 -638 -4z"/>
<path d="M2335 4188 c-3 -7 -4 -242 -3 -522 l3 -510 45 -34 c25 -18 163 -124
307 -235 145 -111 269 -202 275 -202 12 0 16 78 18 385 l0 55 85 -4 c47 -1 97
0 110 3 l25 6 -2 533 -3 532 -428 3 c-337 2 -429 0 -432 -10z m795 -520 l0
-478 -75 0 -75 0 0 113 c-1 61 -2 180 -3 262 l-2 150 -125 93 c-69 51 -194
145 -278 210 l-154 117 94 5 c51 3 211 5 355 5 l263 0 0 -477z"/>
<path d="M4254 3758 c-68 -66 -121 -125 -119 -129 3 -4 56 -5 119 -2 l114 6 7
-69 c9 -102 23 -151 61 -225 61 -115 158 -197 291 -246 85 -31 222 -32 315 -3
121 37 248 141 301 247 51 100 60 154 61 353 l1 185 -514 3 -514 2 -123 -122z"/>
<path d="M3964 2881 c-22 -4 -54 -16 -71 -26 -17 -11 -123 -135 -236 -275
-112 -140 -220 -273 -239 -294 l-34 -39 -210 159 c-115 87 -262 200 -326 249
-150 115 -188 135 -253 134 -138 -2 -246 -103 -246 -231 0 -127 19 -147 440
-467 201 -152 381 -287 398 -299 18 -13 55 -42 83 -66 76 -65 142 -79 237 -51
68 20 47 -3 363 399 l235 299 3 -506 c1 -279 6 -507 10 -507 9 0 1222 1513
1222 1524 0 8 -1324 5 -1376 -3z"/>
<path d="M5638 2748 c-63 -79 -245 -309 -405 -513 -160 -203 -399 -507 -531
-675 -132 -168 -238 -307 -237 -310 2 -3 236 -6 519 -5 l516 1 0 -138 0 -138
-657 -2 -658 -3 -3 -276 -2 -276 182 -5 c101 -3 525 -5 943 -4 l760 1 0 1125
c0 1080 -1 1127 -19 1174 -38 99 -128 167 -238 180 l-57 7 -113 -143z"/>
</g>
</svg>
