<?xml version="1.0" standalone="no"?>
<!DOCTYPE svg PUBLIC "-//W3C//DTD SVG 20010904//EN"
 "http://www.w3.org/TR/2001/REC-SVG-20010904/DTD/svg10.dtd">
<svg version="1.0" xmlns="http://www.w3.org/2000/svg"
 width="840.000000pt" height="925.000000pt" viewBox="0 0 840.000000 925.000000"
 preserveAspectRatio="xMidYMid meet">
<metadata>
Created by potrace 1.16, written by Peter Selinger 2001-2019
</metadata>
<g transform="translate(0.000000,925.000000) scale(0.100000,-0.100000)"
fill="#ffffff" stroke="none">
<path d="M3830 8830 c-605 -57 -1184 -286 -1633 -643 -409 -326 -676 -732
-768 -1167 -30 -140 -33 -383 -6 -480 33 -122 82 -208 171 -295 144 -143 316
-207 557 -206 204 0 353 45 482 147 117 92 209 230 346 520 164 349 255 483
410 606 187 150 449 228 761 228 535 0 918 -227 1050 -623 39 -118 53 -214 53
-357 -2 -213 -60 -382 -200 -577 -129 -181 -295 -334 -728 -670 -347 -269
-437 -345 -586 -493 -254 -253 -405 -508 -465 -782 -22 -104 -30 -313 -14
-401 16 -94 58 -211 101 -283 19 -32 70 -95 114 -140 89 -89 192 -149 315
-181 99 -26 327 -23 444 5 237 59 366 189 481 485 200 514 222 539 905 1025
597 425 898 713 1110 1062 233 384 315 815 245 1298 -71 497 -309 930 -683
1243 -432 361 -1018 587 -1727 664 -168 19 -603 27 -735 15z"/>
<path d="M3905 2263 c-152 -21 -344 -105 -468 -204 -145 -116 -267 -300 -317
-479 -31 -108 -38 -297 -15 -415 54 -290 241 -534 510 -665 151 -74 240 -95
410 -94 154 0 218 12 356 65 157 61 328 198 426 344 181 269 211 614 79 900
-89 192 -251 362 -436 455 -151 77 -381 116 -545 93z"/>
</g>
</svg>
