<svg version="1.0" xmlns="http://www.w3.org/2000/svg"
 width="200.000000pt" height="200.000000pt" viewBox="0 0 200.000000 200.000000"
 preserveAspectRatio="xMidYMid meet">
<metadata>
Created by potrace 1.16, written by Peter Selinger 2001-2019
</metadata>
<g transform="translate(0.000000,200.000000) scale(0.100000,-0.100000)" fill="white" stroke="none">
<path d="M446 1648 c-83 -5 -152 -10 -154 -12 -2 -2 2 -22 8 -45 l11 -41 119
0 119 0 31 44 c29 43 38 68 23 65 -5 -1 -75 -6 -157 -11z"/>
<path d="M996 1600 c-65 -25 -130 -91 -158 -157 l-22 -53 -104 0 c-135 0 -134
-15 5 -77 81 -36 104 -51 111 -72 6 -14 13 -34 17 -43 6 -15 1 -18 -29 -18
-35 0 -36 -1 -36 -40 l0 -40 59 0 c33 0 61 4 63 9 2 5 9 3 16 -5 7 -8 8 -14 2
-14 -7 0 -10 -81 -10 -240 l0 -240 385 0 385 0 0 240 0 240 -202 3 -203 2 203
3 202 2 0 40 0 40 -160 0 c-88 0 -160 2 -160 4 0 2 7 21 16 42 24 57 21 159
-6 223 -28 64 -102 133 -167 155 -62 21 -147 19 -207 -4z m220 -38 c190 -98
190 -363 -1 -465 -56 -30 -164 -30 -221 0 -54 29 -117 101 -133 153 -11 38
-18 44 -84 75 l-72 33 71 1 71 1 13 45 c21 74 97 149 180 176 40 13 133 3 176
-19z m394 -682 l0 -140 -110 0 -110 0 0 140 0 140 110 0 110 0 0 -140z"/>
<path d="M1140 1385 l-64 -65 -32 31 c-37 36 -62 35 -84 -3 -15 -27 -14 -28
40 -83 31 -31 63 -55 75 -55 24 0 195 167 195 191 0 19 -31 49 -51 49 -8 0
-44 -29 -79 -65z"/>
<path d="M310 1474 c0 -35 6 -67 17 -85 18 -31 67 -59 103 -59 57 0 120 58
120 109 0 17 6 21 32 21 l32 0 -34 35 -34 35 -118 0 -118 0 0 -56z"/>
<path d="M364 1306 c-109 -48 -173 -192 -174 -389 0 -82 1 -88 24 -98 17 -8
29 -8 45 0 18 10 21 21 21 81 0 38 5 93 12 122 l12 53 6 -45 5 -45 86 136
c120 188 115 177 84 189 -36 14 -84 12 -121 -4z"/>
<path d="M504 1238 c-15 -24 -65 -103 -111 -175 -45 -73 -83 -135 -83 -138 0
-3 54 -5 120 -5 l120 0 1 93 1 92 15 -45 c8 -25 17 -85 20 -135 4 -65 10 -93
21 -102 21 -17 37 -16 56 3 34 34 12 252 -34 345 -22 44 -77 109 -92 109 -4 0
-20 -19 -34 -42z"/>
<path d="M780 850 l0 -240 60 0 60 0 0 240 0 240 -60 0 -60 0 0 -240z"/>
<path d="M1690 850 l0 -240 60 0 60 0 0 240 0 240 -60 0 -60 0 0 -240z"/>
<path d="M310 631 c0 -223 2 -262 16 -275 22 -23 71 -20 84 3 6 12 10 104 10
230 0 181 2 211 15 211 13 0 15 -31 15 -218 0 -233 2 -242 50 -242 49 0 50 6
50 287 l0 263 -120 0 -120 0 0 -259z"/>
<path d="M910 560 l0 -40 385 0 385 0 0 40 0 40 -385 0 -385 0 0 -40z"/>
<path d="M780 425 l0 -75 515 0 515 0 0 75 0 75 -60 0 c-53 0 -60 -2 -60 -20
0 -11 7 -20 15 -20 11 0 15 -11 15 -40 l0 -40 -60 0 -60 0 0 40 0 40 40 0 c33
0 40 3 40 20 0 20 -7 20 -60 20 l-60 0 0 -75z"/>
</g>
</svg>
