<?xml version="1.0" standalone="no"?>
<!DOCTYPE svg PUBLIC "-//W3C//DTD SVG 20010904//EN" "http://www.w3.org/TR/2001/REC-SVG-20010904/DTD/svg10.dtd">
<svg version="1.0" xmlns="http://www.w3.org/2000/svg" width="225.000000pt" height="225.000000pt" viewBox="0 0 225.000000 225.000000" preserveAspectRatio="xMidYMid meet">
<metadata>
Created by potrace 1.16, written by Peter Selinger 2001-2019
</metadata>
<g transform="translate(0.000000,225.000000) scale(0.100000,-0.100000)" fill="black" stroke="none">
<path d="M415 1876 c-104 -33 -206 -114 -262 -207 -37 -62 -66 -163 -61 -217 l3 -37 450 0 450 0 3 23 c5 33 38 42 158 42 l105 0 20 -35 21 -35 373 0 c391 0 395 0 373 43 -8 16 -35 17 -349 17 l-340 0 -33 35 -33 35 -148 0 -147 0 -35 -35 -35 -35 -384 0 -384 0 0 23 c0 41 11 44 138 49 129 4 156 13 136 46 -9 14 -30 17 -118 20 -82 2 -106 6 -106 17 0 29 101 124 168 157 l67 33 700 0 700 0 55 -26 c30 -14 75 -45 100 -67 l45 -41 -198 -1 c-173 0 -198 -2 -204 -16 -3 -9 -2 -24 4 -33 9 -14 42 -17 228 -21 l218 -5 18 -50 c16 -45 18 -100 18 -559 l1 -508 -34 -34 -34 -34 -914 0 c-844 0 -915 1 -938 17 -51 35 -49 23 -50 459 0 441 0 445 -50 429 -20 -6 -20 -12 -20 -420 0 -269 4 -424 11 -442 14 -38 46 -71 91 -94 36 -18 73 -19 956 -19 l918 0 47 30 47 30 0 605 0 606 -27 46 c-42 72 -115 138 -200 180 l-77 38 -700 2 c-547 1 -710 -1 -741 -11z"/>
<path d="M236 1314 c-3 -8 -6 -192 -6 -409 0 -333 2 -394 15 -405 11 -9 214 -11 904 -8 489 1 893 6 897 10 4 4 9 185 12 402 4 310 2 399 -8 411 -11 13 -74 15 -485 15 -410 0 -474 -2 -485 -15 -10 -13 -10 -19 5 -35 15 -17 31 -20 107 -20 l88 0 0 -96 0 -96 -39 -39 c-38 -38 -57 -44 -121 -39 -33 3 -70 26 -95 58 -17 23 -21 48 -25 152 l-5 125 -376 3 c-337 2 -377 1 -383 -14z m694 -120 c0 -100 15 -155 56 -202 44 -52 89 -72 159 -72 58 0 103 17 143 54 44 39 56 76 62 186 l5 105 315 0 315 0 3 -142 3 -142 -138 -3 -138 -3 0 -25 0 -25 135 -6 c74 -4 136 -7 138 -8 1 0 2 -80 2 -176 l0 -175 -845 0 -845 0 0 180 0 180 64 0 c50 0 65 4 70 16 11 30 -13 44 -75 44 l-59 0 0 145 0 145 315 0 315 0 0 -76z"/>
<path d="M445 750 c-3 -11 -3 -24 0 -30 4 -6 94 -10 240 -10 146 0 236 4 240 10 3 6 3 19 0 30 -6 19 -15 20 -240 20 -225 0 -234 -1 -240 -20z"/>
</g>
</svg>
