<?xml version="1.0" standalone="no"?>
<!DOCTYPE svg PUBLIC "-//W3C//DTD SVG 20010904//EN"
 "http://www.w3.org/TR/2001/REC-SVG-20010904/DTD/svg10.dtd">
<svg version="1.0" xmlns="http://www.w3.org/2000/svg"
 width="225.000000pt" height="225.000000pt" viewBox="0 0 225.000000 225.000000"
 preserveAspectRatio="xMidYMid meet">
<metadata>
Created by potrace 1.16, written by Peter Selinger 2001-2019
</metadata>
<g transform="translate(0.000000,225.000000) scale(0.100000,-0.100000)"
fill="#000000" stroke="none">
<path d="M310 1636 c0 -10 4 -15 9 -11 6 3 50 -24 99 -60 49 -36 96 -65 103
-65 10 -1 9 -5 -4 -14 -17 -13 -16 -15 12 -32 23 -14 29 -23 25 -38 -5 -16 -3
-18 17 -13 34 9 194 -100 178 -120 -9 -10 -5 -13 20 -13 45 0 162 -92 143
-112 -4 -4 -69 -22 -145 -41 l-138 -34 -23 31 c-13 17 -44 66 -71 109 -26 42
-50 79 -55 82 -4 2 -23 0 -43 -6 l-37 -10 0 -124 c0 -69 -3 -125 -6 -125 -3 0
-58 25 -122 55 -78 37 -127 55 -146 53 -27 -3 -20 -10 87 -84 l116 -81 -27
-20 c-38 -29 -21 -42 69 -56 67 -10 79 -15 131 -60 43 -36 63 -47 78 -42 22 7
25 26 10 56 -10 18 -6 19 124 19 86 0 161 6 208 16 104 23 278 19 329 -7 26
-13 37 -24 33 -34 -5 -12 0 -14 24 -9 26 5 35 1 56 -22 17 -21 21 -32 14 -41
-8 -10 -4 -13 14 -13 28 0 71 -51 62 -74 -4 -12 1 -13 30 -6 34 7 38 5 66 -30
16 -21 30 -43 30 -49 0 -5 16 -1 35 10 19 12 35 26 35 32 0 7 -9 36 -20 66
-12 29 -20 55 -18 56 2 1 26 8 53 14 63 16 85 35 85 77 0 55 -21 66 -110 58
l-78 -6 -12 36 c-20 63 -14 66 253 131 201 49 275 76 320 119 48 45 36 71 -55
118 -71 37 -83 40 -155 40 -81 0 -184 -19 -433 -77 -143 -34 -144 -34 -162
-15 -22 23 -34 24 -128 9 l-70 -10 -297 156 c-164 85 -323 169 -354 186 -69
37 -159 51 -159 25z"/>
</g>
</svg>
