<?xml version="1.0" standalone="no"?>
<!DOCTYPE svg PUBLIC "-//W3C//DTD SVG 20010904//EN"
 "http://www.w3.org/TR/2001/REC-SVG-20010904/DTD/svg10.dtd">
<svg version="1.0" xmlns="http://www.w3.org/2000/svg"
 width="225.000000pt" height="225.000000pt" viewBox="0 0 225.000000 225.000000"
 preserveAspectRatio="xMidYMid meet">
<metadata>
Created by potrace 1.16, written by Peter Selinger 2001-2019
</metadata>
<g transform="translate(0.000000,225.000000) scale(0.100000,-0.100000)"
fill="#000000" stroke="none">
<path d="M600 1895 c0 -31 3 -35 25 -35 16 0 25 6 25 15 0 13 21 15 130 15
109 0 130 -2 130 -15 0 -10 10 -15 30 -15 28 0 30 3 30 35 l0 35 -185 0 -185
0 0 -35z"/>
<path d="M430 1597 c-14 -7 -33 -28 -43 -47 -16 -32 -17 -75 -15 -530 l3 -495
85 -10 c74 -9 86 -13 95 -33 10 -21 13 -22 171 -22 l161 0 7 61 c3 34 6 270 6
524 0 384 2 464 14 468 33 13 36 -13 36 -373 l0 -355 21 43 c12 24 30 49 40
55 18 11 19 31 19 318 0 252 2 308 14 312 33 13 36 -14 36 -301 0 -243 2 -283
14 -279 8 3 33 11 55 17 l41 11 0 284 c0 306 -3 326 -51 351 -38 19 -670 21
-709 1z m120 -563 c0 -467 0 -474 -20 -474 -20 0 -20 7 -20 474 0 475 1 497
33 479 4 -2 7 -218 7 -479z m128 3 c2 -472 2 -477 -18 -477 -20 0 -20 6 -20
473 0 261 3 477 7 481 25 25 28 -20 31 -477z m140 -6 l-3 -466 -22 -3 -23 -3
0 474 c0 488 1 503 38 474 9 -7 12 -110 10 -476z"/>
<path d="M1172 935 c-62 -14 -137 -50 -160 -77 -22 -27 36 -195 75 -217 13 -7
20 -4 28 12 12 25 50 34 71 17 7 -7 14 -25 14 -41 0 -25 5 -29 38 -36 46 -9
255 -9 302 0 29 6 38 13 45 40 8 25 16 33 40 35 19 3 33 -2 43 -15 13 -17 14
-17 37 10 32 36 72 164 58 186 -16 26 -72 60 -127 77 -72 23 -376 29 -464 9z"/>
<path d="M961 747 c-29 -97 -53 -239 -54 -337 l-2 -85 101 -3 102 -3 4 93 c6
151 0 194 -27 206 -32 15 -52 48 -80 129 l-23 68 -21 -68z"/>
<path d="M1767 738 c-13 -43 -30 -73 -55 -99 l-37 -37 -3 -141 -2 -141 99 0
c89 0 100 2 106 19 16 51 -59 461 -84 461 -3 0 -14 -28 -24 -62z"/>
<path d="M1210 550 c0 -14 -5 -31 -11 -37 -7 -7 -8 -19 -4 -30 5 -10 7 -51 6
-90 l-3 -73 191 0 191 0 2 78 c2 70 -1 176 -5 178 -1 0 -46 -4 -99 -9 -61 -6
-130 -6 -183 0 l-85 9 0 -26z"/>
</g>
</svg>
