<?xml version="1.0" standalone="no"?>
<!DOCTYPE svg PUBLIC "-//W3C//DTD SVG 20010904//EN"
 "http://www.w3.org/TR/2001/REC-SVG-20010904/DTD/svg10.dtd">
<svg version="1.0" xmlns="http://www.w3.org/2000/svg"
 width="224.000000pt" height="225.000000pt" viewBox="0 0 224.000000 225.000000"
 preserveAspectRatio="xMidYMid meet">
<metadata>
Created by potrace 1.16, written by Peter Selinger 2001-2019
</metadata>
<g transform="translate(0.000000,225.000000) scale(0.100000,-0.100000)"
fill="#000000" stroke="none">
<path d="M1145 1929 c-61 -8 -156 -45 -231 -90 -55 -33 -114 -90 -114 -110 0
-5 17 -28 38 -50 l37 -40 37 15 c20 9 63 18 95 21 85 9 103 14 103 28 0 22 44
57 71 57 31 0 68 -25 79 -54 7 -19 17 -23 64 -25 50 -2 109 -15 156 -35 18 -7
90 58 90 82 0 28 -83 96 -170 140 -101 50 -186 71 -255 61z"/>
<path d="M1045 1639 c-131 -14 -165 -35 -165 -102 0 -11 -11 -32 -24 -46 -23
-25 -30 -45 -27 -84 0 -9 25 -44 55 -76 30 -32 60 -69 67 -82 6 -13 27 -42 45
-65 l34 -41 -23 -19 c-12 -11 -93 -49 -180 -83 -205 -83 -197 -71 -213 -295
-7 -94 -13 -208 -13 -253 -1 -77 1 -84 27 -108 117 -109 639 -151 942 -74 96
24 182 68 196 99 9 19 8 79 -2 240 -8 118 -16 230 -19 247 -10 57 -41 79 -209
147 -87 36 -167 73 -177 82 -19 17 -19 18 -1 38 11 12 37 48 59 81 23 33 57
75 77 93 62 56 68 98 21 154 -12 14 -25 45 -29 68 -8 50 -34 64 -147 77 -73 9
-78 8 -99 -14 -29 -30 -76 -30 -109 0 -23 21 -32 22 -86 16z m7 -179 c64 -15
230 -9 293 10 21 7 53 28 71 47 l32 34 6 -26 c17 -66 -43 -234 -111 -315 -44
-52 -110 -90 -159 -90 -119 0 -264 201 -264 367 l0 66 38 -40 c29 -32 49 -43
94 -53z m33 -352 c15 -7 37 -32 51 -59 l24 -48 -22 -101 c-12 -55 -25 -97 -29
-93 -4 5 -25 66 -47 137 -39 123 -40 130 -24 152 20 28 15 27 47 12z m249 -77
c-7 -25 -26 -88 -41 -138 -16 -51 -30 -93 -33 -93 -3 0 -15 46 -26 102 l-21
101 23 46 c13 25 34 50 46 57 20 11 26 10 45 -8 20 -19 21 -22 7 -67z"/>
</g>
</svg>
